<svg xmlns="http://www.w3.org/2000/svg" xmlns:xlink="http://www.w3.org/1999/xlink" width="500" zoomAndPan="magnify" viewBox="0 0 375 374.999991" height="500" preserveAspectRatio="xMidYMid meet" version="1.0"><defs><g/><clipPath id="90b4a55a7f"><path d="M 39.921875 123 L 335 123 L 335 281 L 39.921875 281 Z M 39.921875 123 " clip-rule="nonzero"/></clipPath><clipPath id="4d3267e6a0"><path d="M 319.203125 150.414062 L 203.375 124.917969 C 194.65625 122.992188 180.34375 122.992188 171.625 124.917969 L 55.796875 150.414062 C 47.078125 152.339844 39.921875 161.238281 39.921875 170.199219 L 39.921875 232.859375 C 39.921875 242 47.078125 251.082031 55.796875 253.066406 L 171.625 279.164062 C 180.34375 281.152344 194.65625 281.152344 203.375 279.164062 L 319.203125 253.066406 C 327.921875 251.082031 335.078125 242 335.078125 232.859375 L 335.078125 170.199219 C 335.078125 161.238281 327.921875 152.339844 319.203125 150.414062 Z M 319.203125 150.414062 " clip-rule="nonzero"/></clipPath><clipPath id="19abc9dcd7"><path d="M 45.046875 128.710938 L 330 128.710938 L 330 275.941406 L 45.046875 275.941406 Z M 45.046875 128.710938 " clip-rule="nonzero"/></clipPath><clipPath id="773da1e71f"><path d="M 314.625 154.71875 L 202.824219 130.105469 C 194.40625 128.246094 180.59375 128.246094 172.175781 130.105469 L 60.375 154.71875 C 51.957031 156.574219 45.046875 165.167969 45.046875 173.816406 L 45.046875 229.28125 C 45.046875 238.101562 51.957031 246.867188 60.375 248.785156 L 172.175781 273.976562 C 180.59375 275.894531 194.40625 275.894531 202.824219 273.976562 L 314.625 248.785156 C 323.042969 246.867188 329.953125 238.101562 329.953125 229.28125 L 329.953125 173.816406 C 329.953125 165.167969 323.042969 156.574219 314.625 154.71875 Z M 314.625 154.71875 " clip-rule="nonzero"/></clipPath><clipPath id="869def5f8b"><path d="M 69 179 L 116.265625 179 L 116.265625 223 L 69 223 Z M 69 179 " clip-rule="nonzero"/></clipPath></defs><g clip-path="url(#90b4a55a7f)"><g clip-path="url(#4d3267e6a0)"><path fill="#e6b464" d="M 39.921875 123.472656 L 335 123.472656 L 335 280.609375 L 39.921875 280.609375 Z M 39.921875 123.472656 " fill-opacity="1" fill-rule="nonzero"/></g></g><g clip-path="url(#19abc9dcd7)"><g clip-path="url(#773da1e71f)"><path fill="#000000" d="M 45.046875 128.710938 L 329.773438 128.710938 L 329.773438 275.371094 L 45.046875 275.371094 Z M 45.046875 128.710938 " fill-opacity="1" fill-rule="nonzero"/></g></g><g fill="#e6b464" fill-opacity="1"><g transform="translate(119.295184, 202.345785)"><g><path d="M 14.640625 -22.703125 L 14.640625 -18.15625 L 6.828125 -18.15625 L 6.828125 -13.640625 L 14.3125 -13.640625 L 14.3125 -9.109375 L 6.828125 -9.109375 L 6.828125 -4.546875 L 14.640625 -4.546875 L 14.640625 0 L 1.65625 0 L 1.65625 -22.703125 Z M 14.640625 -22.703125 "/></g></g></g><g fill="#e6b464" fill-opacity="1"><g transform="translate(135.252656, 202.345785)"><g><path d="M 10.015625 -23.109375 C 11.242188 -23.109375 12.441406 -22.929688 13.609375 -22.578125 C 14.785156 -22.222656 15.660156 -21.867188 16.234375 -21.515625 L 17.0625 -20.96875 L 14.96875 -16.84375 C 14.800781 -16.945312 14.570312 -17.085938 14.28125 -17.265625 C 13.988281 -17.441406 13.4375 -17.675781 12.625 -17.96875 C 11.820312 -18.257812 11.070312 -18.40625 10.375 -18.40625 C 9.507812 -18.40625 8.84375 -18.222656 8.375 -17.859375 C 7.90625 -17.492188 7.671875 -17 7.671875 -16.375 C 7.671875 -16.0625 7.78125 -15.769531 8 -15.5 C 8.226562 -15.238281 8.609375 -14.957031 9.140625 -14.65625 C 9.671875 -14.351562 10.132812 -14.109375 10.53125 -13.921875 C 10.9375 -13.734375 11.5625 -13.457031 12.40625 -13.09375 C 13.875 -12.46875 15.125 -11.617188 16.15625 -10.546875 C 17.195312 -9.472656 17.71875 -8.257812 17.71875 -6.90625 C 17.71875 -5.601562 17.484375 -4.460938 17.015625 -3.484375 C 16.546875 -2.515625 15.90625 -1.753906 15.09375 -1.203125 C 14.28125 -0.660156 13.375 -0.257812 12.375 0 C 11.382812 0.269531 10.3125 0.40625 9.15625 0.40625 C 8.164062 0.40625 7.191406 0.304688 6.234375 0.109375 C 5.285156 -0.0859375 4.488281 -0.335938 3.84375 -0.640625 C 3.207031 -0.941406 2.628906 -1.238281 2.109375 -1.53125 C 1.597656 -1.832031 1.222656 -2.082031 0.984375 -2.28125 L 0.640625 -2.59375 L 3.21875 -6.9375 C 3.4375 -6.75 3.738281 -6.515625 4.125 -6.234375 C 4.507812 -5.953125 5.191406 -5.570312 6.171875 -5.09375 C 7.160156 -4.613281 8.03125 -4.375 8.78125 -4.375 C 10.957031 -4.375 12.046875 -5.117188 12.046875 -6.609375 C 12.046875 -6.921875 11.96875 -7.207031 11.8125 -7.46875 C 11.65625 -7.738281 11.378906 -8.003906 10.984375 -8.265625 C 10.597656 -8.535156 10.253906 -8.75 9.953125 -8.90625 C 9.648438 -9.0625 9.148438 -9.296875 8.453125 -9.609375 C 7.765625 -9.929688 7.257812 -10.175781 6.9375 -10.34375 C 5.5625 -11.019531 4.492188 -11.867188 3.734375 -12.890625 C 2.984375 -13.910156 2.609375 -15.003906 2.609375 -16.171875 C 2.609375 -18.210938 3.359375 -19.878906 4.859375 -21.171875 C 6.367188 -22.460938 8.085938 -23.109375 10.015625 -23.109375 Z M 10.015625 -23.109375 "/></g></g></g><g fill="#e6b464" fill-opacity="1"><g transform="translate(153.741314, 202.345785)"><g><path d="M 7.1875 4.765625 L 5.9375 2.890625 C 6 2.816406 6.070312 2.722656 6.15625 2.609375 C 6.25 2.503906 6.441406 2.300781 6.734375 2 C 7.035156 1.695312 7.320312 1.429688 7.59375 1.203125 C 7.863281 0.972656 8.179688 0.765625 8.546875 0.578125 C 8.921875 0.390625 9.265625 0.296875 9.578125 0.296875 L 9.578125 0.1875 C 6.898438 -0.320312 4.738281 -1.640625 3.09375 -3.765625 C 1.457031 -5.898438 0.640625 -8.429688 0.640625 -11.359375 C 0.640625 -14.660156 1.738281 -17.441406 3.9375 -19.703125 C 6.132812 -21.972656 8.800781 -23.109375 11.9375 -23.109375 C 15.09375 -23.109375 17.757812 -21.972656 19.9375 -19.703125 C 22.125 -17.441406 23.21875 -14.660156 23.21875 -11.359375 C 23.21875 -8.660156 22.492188 -6.285156 21.046875 -4.234375 C 19.597656 -2.179688 17.691406 -0.796875 15.328125 -0.078125 L 15.328125 0.03125 C 15.429688 0.03125 15.914062 0.113281 16.78125 0.28125 C 17.644531 0.457031 18.332031 0.546875 18.84375 0.546875 C 19.539062 0.546875 20.171875 0.421875 20.734375 0.171875 C 21.304688 -0.0664062 21.707031 -0.304688 21.9375 -0.546875 L 22.265625 -0.9375 L 23.890625 2.5625 C 23.847656 2.65625 23.785156 2.769531 23.703125 2.90625 C 23.617188 3.039062 23.429688 3.28125 23.140625 3.625 C 22.847656 3.976562 22.519531 4.289062 22.15625 4.5625 C 21.800781 4.84375 21.328125 5.09375 20.734375 5.3125 C 20.140625 5.53125 19.503906 5.640625 18.828125 5.640625 C 17.703125 5.640625 16.332031 5.28125 14.71875 4.5625 C 13.101562 3.851562 11.707031 3.5 10.53125 3.5 C 9.894531 3.5 9.296875 3.601562 8.734375 3.8125 C 8.171875 4.019531 7.773438 4.234375 7.546875 4.453125 Z M 6.21875 -11.359375 C 6.21875 -10.484375 6.316406 -9.664062 6.515625 -8.90625 C 6.722656 -8.144531 7.039062 -7.453125 7.46875 -6.828125 C 7.894531 -6.203125 8.488281 -5.707031 9.25 -5.34375 C 10.019531 -4.988281 10.914062 -4.8125 11.9375 -4.8125 C 13.863281 -4.8125 15.296875 -5.4375 16.234375 -6.6875 C 17.171875 -7.9375 17.640625 -9.492188 17.640625 -11.359375 C 17.640625 -13.210938 17.160156 -14.765625 16.203125 -16.015625 C 15.253906 -17.273438 13.832031 -17.90625 11.9375 -17.90625 C 10.070312 -17.90625 8.648438 -17.269531 7.671875 -16 C 6.703125 -14.738281 6.21875 -13.191406 6.21875 -11.359375 Z M 6.21875 -11.359375 "/></g></g></g><g fill="#e6b464" fill-opacity="1"><g transform="translate(177.594981, 202.345785)"><g><path d="M 19.09375 -22.703125 L 19.09375 -8.0625 C 19.09375 -5.269531 18.335938 -3.160156 16.828125 -1.734375 C 15.328125 -0.304688 13.128906 0.40625 10.234375 0.40625 C 7.335938 0.40625 5.132812 -0.304688 3.625 -1.734375 C 2.125 -3.160156 1.375 -5.269531 1.375 -8.0625 L 1.375 -22.703125 L 6.546875 -22.703125 L 6.546875 -9.578125 C 6.546875 -7.742188 6.832031 -6.46875 7.40625 -5.75 C 7.988281 -5.03125 8.929688 -4.671875 10.234375 -4.671875 C 11.535156 -4.671875 12.472656 -5.03125 13.046875 -5.75 C 13.628906 -6.46875 13.921875 -7.742188 13.921875 -9.578125 L 13.921875 -22.703125 Z M 19.09375 -22.703125 "/></g></g></g><g fill="#e6b464" fill-opacity="1"><g transform="translate(198.064569, 202.345785)"><g><path d="M 6.828125 -22.703125 L 6.828125 0 L 1.65625 0 L 1.65625 -22.703125 Z M 6.828125 -22.703125 "/></g></g></g><g fill="#e6b464" fill-opacity="1"><g transform="translate(206.538533, 202.345785)"><g><path d="M 6.828125 -14.09375 L 6.828125 0 L 1.65625 0 L 1.65625 -22.703125 L 6.828125 -22.703125 L 15.84375 -8.609375 L 15.90625 -8.609375 L 15.90625 -22.703125 L 21.078125 -22.703125 L 21.078125 0 L 15.90625 0 L 6.875 -14.09375 Z M 6.828125 -14.09375 "/></g></g></g><g fill="#e6b464" fill-opacity="1"><g transform="translate(229.26418, 202.345785)"><g><path d="M 13.1875 -22.703125 L 22.34375 0 L 16.78125 0 L 15.109375 -4.546875 L 6.46875 -4.546875 L 4.78125 0 L -0.765625 0 L 8.390625 -22.703125 Z M 13.34375 -9.078125 L 10.8125 -15.6875 L 10.765625 -15.6875 L 8.234375 -9.078125 Z M 13.34375 -9.078125 "/></g></g></g><g fill="#e6b464" fill-opacity="1"><g transform="translate(250.834282, 202.345785)"><g/></g></g><g fill="#e6b464" fill-opacity="1"><g transform="translate(258.345303, 202.345785)"><g><path d="M 9.984375 -18.734375 C 9.253906 -18.734375 8.550781 -18.367188 7.875 -17.640625 C 7.207031 -16.921875 6.71875 -16.203125 6.40625 -15.484375 L 5.9375 -14.421875 L 1.625 -16.515625 C 1.675781 -16.691406 1.765625 -16.925781 1.890625 -17.21875 C 2.023438 -17.519531 2.328125 -18.050781 2.796875 -18.8125 C 3.273438 -19.570312 3.800781 -20.238281 4.375 -20.8125 C 4.957031 -21.394531 5.75 -21.921875 6.75 -22.390625 C 7.75 -22.867188 8.828125 -23.109375 9.984375 -23.109375 C 11.472656 -23.109375 12.769531 -22.921875 13.875 -22.546875 C 14.988281 -22.171875 15.847656 -21.703125 16.453125 -21.140625 C 17.054688 -20.585938 17.546875 -19.925781 17.921875 -19.15625 C 18.296875 -18.394531 18.535156 -17.703125 18.640625 -17.078125 C 18.742188 -16.460938 18.796875 -15.816406 18.796875 -15.140625 C 18.796875 -14.140625 18.519531 -13.09375 17.96875 -12 C 17.414062 -10.914062 16.75 -9.945312 15.96875 -9.09375 C 15.1875 -8.238281 14.398438 -7.457031 13.609375 -6.75 C 12.828125 -6.050781 12.160156 -5.507812 11.609375 -5.125 L 10.78125 -4.546875 L 19.203125 -4.546875 L 19.203125 0 L 1.515625 0 L 1.515625 -1.296875 C 1.828125 -1.546875 2.25 -1.894531 2.78125 -2.34375 C 3.3125 -2.800781 4.242188 -3.660156 5.578125 -4.921875 C 6.921875 -6.191406 8.101562 -7.378906 9.125 -8.484375 C 10.15625 -9.597656 11.09375 -10.785156 11.9375 -12.046875 C 12.78125 -13.316406 13.203125 -14.347656 13.203125 -15.140625 C 13.203125 -15.441406 13.171875 -15.75 13.109375 -16.0625 C 13.046875 -16.375 12.921875 -16.753906 12.734375 -17.203125 C 12.554688 -17.660156 12.226562 -18.03125 11.75 -18.3125 C 11.269531 -18.59375 10.679688 -18.734375 9.984375 -18.734375 Z M 9.984375 -18.734375 "/></g></g></g><g fill="#e6b464" fill-opacity="1"><g transform="translate(279.062496, 202.345785)"><g><path d="M 9.984375 -18.734375 C 9.253906 -18.734375 8.550781 -18.367188 7.875 -17.640625 C 7.207031 -16.921875 6.71875 -16.203125 6.40625 -15.484375 L 5.9375 -14.421875 L 1.625 -16.515625 C 1.675781 -16.691406 1.765625 -16.925781 1.890625 -17.21875 C 2.023438 -17.519531 2.328125 -18.050781 2.796875 -18.8125 C 3.273438 -19.570312 3.800781 -20.238281 4.375 -20.8125 C 4.957031 -21.394531 5.75 -21.921875 6.75 -22.390625 C 7.75 -22.867188 8.828125 -23.109375 9.984375 -23.109375 C 11.472656 -23.109375 12.769531 -22.921875 13.875 -22.546875 C 14.988281 -22.171875 15.847656 -21.703125 16.453125 -21.140625 C 17.054688 -20.585938 17.546875 -19.925781 17.921875 -19.15625 C 18.296875 -18.394531 18.535156 -17.703125 18.640625 -17.078125 C 18.742188 -16.460938 18.796875 -15.816406 18.796875 -15.140625 C 18.796875 -14.140625 18.519531 -13.09375 17.96875 -12 C 17.414062 -10.914062 16.75 -9.945312 15.96875 -9.09375 C 15.1875 -8.238281 14.398438 -7.457031 13.609375 -6.75 C 12.828125 -6.050781 12.160156 -5.507812 11.609375 -5.125 L 10.78125 -4.546875 L 19.203125 -4.546875 L 19.203125 0 L 1.515625 0 L 1.515625 -1.296875 C 1.828125 -1.546875 2.25 -1.894531 2.78125 -2.34375 C 3.3125 -2.800781 4.242188 -3.660156 5.578125 -4.921875 C 6.921875 -6.191406 8.101562 -7.378906 9.125 -8.484375 C 10.15625 -9.597656 11.09375 -10.785156 11.9375 -12.046875 C 12.78125 -13.316406 13.203125 -14.347656 13.203125 -15.140625 C 13.203125 -15.441406 13.171875 -15.75 13.109375 -16.0625 C 13.046875 -16.375 12.921875 -16.753906 12.734375 -17.203125 C 12.554688 -17.660156 12.226562 -18.03125 11.75 -18.3125 C 11.269531 -18.59375 10.679688 -18.734375 9.984375 -18.734375 Z M 9.984375 -18.734375 "/></g></g></g><g fill="#ffffff" fill-opacity="1"><g transform="translate(122.915087, 221.841466)"><g><path d="M 0.71875 -9.9375 L 4.28125 -9.9375 C 5.226562 -9.9375 6.003906 -9.679688 6.609375 -9.171875 C 7.210938 -8.660156 7.515625 -7.929688 7.515625 -6.984375 C 7.515625 -6.253906 7.332031 -5.640625 6.96875 -5.140625 C 6.601562 -4.648438 6.109375 -4.304688 5.484375 -4.109375 L 8.90625 0 L 6.015625 0 L 2.984375 -3.921875 L 2.984375 0 L 0.71875 0 Z M 2.984375 -5.53125 L 3.25 -5.53125 C 3.457031 -5.53125 3.632812 -5.53125 3.78125 -5.53125 C 3.925781 -5.539062 4.085938 -5.570312 4.265625 -5.625 C 4.453125 -5.675781 4.601562 -5.742188 4.71875 -5.828125 C 4.832031 -5.921875 4.925781 -6.050781 5 -6.21875 C 5.082031 -6.382812 5.125 -6.585938 5.125 -6.828125 C 5.125 -7.066406 5.082031 -7.269531 5 -7.4375 C 4.925781 -7.613281 4.832031 -7.742188 4.71875 -7.828125 C 4.601562 -7.921875 4.453125 -7.988281 4.265625 -8.03125 C 4.085938 -8.082031 3.925781 -8.109375 3.78125 -8.109375 C 3.632812 -8.117188 3.457031 -8.125 3.25 -8.125 L 2.984375 -8.125 Z M 2.984375 -5.53125 "/></g></g></g><g fill="#ffffff" fill-opacity="1"><g transform="translate(141.172293, 221.841466)"><g><path d="M 6.96875 -2.796875 L 2.5 -2.796875 C 2.5 -2.359375 2.640625 -2.035156 2.921875 -1.828125 C 3.203125 -1.617188 3.503906 -1.515625 3.828125 -1.515625 C 4.171875 -1.515625 4.441406 -1.5625 4.640625 -1.65625 C 4.847656 -1.75 5.082031 -1.929688 5.34375 -2.203125 L 6.875 -1.4375 C 6.238281 -0.351562 5.171875 0.1875 3.671875 0.1875 C 2.742188 0.1875 1.945312 -0.128906 1.28125 -0.765625 C 0.613281 -1.410156 0.28125 -2.179688 0.28125 -3.078125 C 0.28125 -3.984375 0.613281 -4.753906 1.28125 -5.390625 C 1.945312 -6.035156 2.742188 -6.359375 3.671875 -6.359375 C 4.648438 -6.359375 5.445312 -6.070312 6.0625 -5.5 C 6.675781 -4.9375 6.984375 -4.128906 6.984375 -3.078125 C 6.984375 -2.929688 6.976562 -2.835938 6.96875 -2.796875 Z M 2.546875 -3.96875 L 4.90625 -3.96875 C 4.851562 -4.289062 4.722656 -4.535156 4.515625 -4.703125 C 4.316406 -4.878906 4.054688 -4.96875 3.734375 -4.96875 C 3.378906 -4.96875 3.097656 -4.875 2.890625 -4.6875 C 2.679688 -4.507812 2.566406 -4.269531 2.546875 -3.96875 Z M 2.546875 -3.96875 "/></g></g></g><g fill="#ffffff" fill-opacity="1"><g transform="translate(158.068782, 221.841466)"><g><path d="M 3.40625 -6.359375 C 3.757812 -6.359375 4.109375 -6.316406 4.453125 -6.234375 C 4.796875 -6.160156 5.054688 -6.082031 5.234375 -6 L 5.484375 -5.875 L 4.78125 -4.484375 C 4.300781 -4.734375 3.84375 -4.859375 3.40625 -4.859375 C 3.164062 -4.859375 2.992188 -4.832031 2.890625 -4.78125 C 2.796875 -4.726562 2.75 -4.632812 2.75 -4.5 C 2.75 -4.457031 2.75 -4.421875 2.75 -4.390625 C 2.757812 -4.359375 2.773438 -4.328125 2.796875 -4.296875 C 2.828125 -4.273438 2.851562 -4.253906 2.875 -4.234375 C 2.894531 -4.210938 2.925781 -4.1875 2.96875 -4.15625 C 3.019531 -4.132812 3.054688 -4.117188 3.078125 -4.109375 C 3.109375 -4.097656 3.15625 -4.082031 3.21875 -4.0625 C 3.289062 -4.039062 3.34375 -4.019531 3.375 -4 C 3.40625 -3.988281 3.457031 -3.972656 3.53125 -3.953125 C 3.613281 -3.929688 3.671875 -3.914062 3.703125 -3.90625 C 3.953125 -3.832031 4.171875 -3.75 4.359375 -3.65625 C 4.546875 -3.570312 4.738281 -3.453125 4.9375 -3.296875 C 5.144531 -3.148438 5.304688 -2.957031 5.421875 -2.71875 C 5.535156 -2.488281 5.59375 -2.222656 5.59375 -1.921875 C 5.59375 -0.515625 4.613281 0.1875 2.65625 0.1875 C 2.21875 0.1875 1.800781 0.117188 1.40625 -0.015625 C 1.007812 -0.160156 0.722656 -0.300781 0.546875 -0.4375 L 0.28125 -0.65625 L 1.140625 -2.109375 C 1.203125 -2.054688 1.285156 -1.988281 1.390625 -1.90625 C 1.492188 -1.832031 1.679688 -1.726562 1.953125 -1.59375 C 2.234375 -1.457031 2.472656 -1.390625 2.671875 -1.390625 C 3.117188 -1.390625 3.34375 -1.539062 3.34375 -1.84375 C 3.34375 -1.976562 3.285156 -2.082031 3.171875 -2.15625 C 3.054688 -2.238281 2.863281 -2.328125 2.59375 -2.421875 C 2.320312 -2.515625 2.113281 -2.601562 1.96875 -2.6875 C 1.582031 -2.882812 1.273438 -3.109375 1.046875 -3.359375 C 0.816406 -3.617188 0.703125 -3.957031 0.703125 -4.375 C 0.703125 -5 0.945312 -5.484375 1.4375 -5.828125 C 1.925781 -6.179688 2.582031 -6.359375 3.40625 -6.359375 Z M 3.40625 -6.359375 "/></g></g></g><g fill="#ffffff" fill-opacity="1"><g transform="translate(173.628638, 221.841466)"><g><path d="M 1.078125 -6.1875 L 1.078125 -8.484375 L 3.21875 -8.484375 L 3.21875 -6.1875 L 4.515625 -6.1875 L 4.515625 -4.546875 L 3.21875 -4.546875 L 3.21875 -2.59375 C 3.21875 -2.019531 3.378906 -1.734375 3.703125 -1.734375 C 3.773438 -1.734375 3.851562 -1.75 3.9375 -1.78125 C 4.03125 -1.8125 4.101562 -1.84375 4.15625 -1.875 L 4.234375 -1.921875 L 4.765625 -0.203125 C 4.304688 0.0546875 3.78125 0.1875 3.1875 0.1875 C 2.789062 0.1875 2.445312 0.117188 2.15625 -0.015625 C 1.863281 -0.160156 1.644531 -0.351562 1.5 -0.59375 C 1.351562 -0.832031 1.242188 -1.082031 1.171875 -1.34375 C 1.109375 -1.601562 1.078125 -1.882812 1.078125 -2.1875 L 1.078125 -4.546875 L 0.1875 -4.546875 L 0.1875 -6.1875 Z M 1.078125 -6.1875 "/></g></g></g><g fill="#ffffff" fill-opacity="1"><g transform="translate(188.020447, 221.841466)"><g><path d="M 1.140625 -0.75 C 0.566406 -1.382812 0.28125 -2.160156 0.28125 -3.078125 C 0.28125 -3.992188 0.566406 -4.769531 1.140625 -5.40625 C 1.722656 -6.039062 2.457031 -6.359375 3.34375 -6.359375 C 4.164062 -6.359375 4.84375 -6.101562 5.375 -5.59375 L 5.375 -6.1875 L 7.5 -6.1875 L 7.5 0 L 5.390625 0 L 5.390625 -0.703125 L 5.375 -0.703125 C 4.84375 -0.109375 4.164062 0.1875 3.34375 0.1875 C 2.457031 0.1875 1.722656 -0.125 1.140625 -0.75 Z M 2.953125 -4.125 C 2.679688 -3.851562 2.546875 -3.503906 2.546875 -3.078125 C 2.546875 -2.660156 2.675781 -2.316406 2.9375 -2.046875 C 3.207031 -1.773438 3.554688 -1.640625 3.984375 -1.640625 C 4.398438 -1.640625 4.742188 -1.773438 5.015625 -2.046875 C 5.285156 -2.316406 5.421875 -2.660156 5.421875 -3.078125 C 5.421875 -3.503906 5.28125 -3.851562 5 -4.125 C 4.726562 -4.40625 4.390625 -4.546875 3.984375 -4.546875 C 3.578125 -4.546875 3.234375 -4.40625 2.953125 -4.125 Z M 2.953125 -4.125 "/></g></g></g><g fill="#ffffff" fill-opacity="1"><g transform="translate(205.880272, 221.841466)"><g><path d="M 2.734375 -6.1875 L 2.734375 -3.234375 C 2.734375 -2.628906 2.820312 -2.195312 3 -1.9375 C 3.1875 -1.675781 3.5 -1.546875 3.9375 -1.546875 C 4.382812 -1.546875 4.703125 -1.675781 4.890625 -1.9375 C 5.078125 -2.195312 5.171875 -2.628906 5.171875 -3.234375 L 5.171875 -6.1875 L 7.296875 -6.1875 L 7.296875 -2.71875 C 7.296875 -1.695312 7.03125 -0.957031 6.5 -0.5 C 5.96875 -0.0390625 5.117188 0.1875 3.953125 0.1875 C 2.785156 0.1875 1.9375 -0.0390625 1.40625 -0.5 C 0.875 -0.957031 0.609375 -1.695312 0.609375 -2.71875 L 0.609375 -6.1875 Z M 2.734375 -6.1875 "/></g></g></g><g fill="#ffffff" fill-opacity="1"><g transform="translate(223.414969, 221.841466)"><g><path d="M 0.71875 0 L 0.71875 -6.1875 L 2.859375 -6.1875 L 2.859375 -5.28125 L 2.875 -5.28125 C 2.894531 -5.320312 2.921875 -5.363281 2.953125 -5.40625 C 2.992188 -5.457031 3.070312 -5.539062 3.1875 -5.65625 C 3.3125 -5.78125 3.441406 -5.890625 3.578125 -5.984375 C 3.710938 -6.078125 3.890625 -6.160156 4.109375 -6.234375 C 4.328125 -6.316406 4.546875 -6.359375 4.765625 -6.359375 C 5.003906 -6.359375 5.234375 -6.328125 5.453125 -6.265625 C 5.679688 -6.203125 5.847656 -6.140625 5.953125 -6.078125 L 6.125 -5.96875 L 5.234375 -4.171875 C 4.960938 -4.390625 4.59375 -4.5 4.125 -4.5 C 3.863281 -4.5 3.640625 -4.441406 3.453125 -4.328125 C 3.273438 -4.222656 3.144531 -4.085938 3.0625 -3.921875 C 2.988281 -3.765625 2.9375 -3.628906 2.90625 -3.515625 C 2.875 -3.398438 2.859375 -3.3125 2.859375 -3.25 L 2.859375 0 Z M 0.71875 0 "/></g></g></g><g fill="#ffffff" fill-opacity="1"><g transform="translate(239.047076, 221.841466)"><g><path d="M 1.140625 -0.75 C 0.566406 -1.382812 0.28125 -2.160156 0.28125 -3.078125 C 0.28125 -3.992188 0.566406 -4.769531 1.140625 -5.40625 C 1.722656 -6.039062 2.457031 -6.359375 3.34375 -6.359375 C 4.164062 -6.359375 4.84375 -6.101562 5.375 -5.59375 L 5.375 -6.1875 L 7.5 -6.1875 L 7.5 0 L 5.390625 0 L 5.390625 -0.703125 L 5.375 -0.703125 C 4.84375 -0.109375 4.164062 0.1875 3.34375 0.1875 C 2.457031 0.1875 1.722656 -0.125 1.140625 -0.75 Z M 2.953125 -4.125 C 2.679688 -3.851562 2.546875 -3.503906 2.546875 -3.078125 C 2.546875 -2.660156 2.675781 -2.316406 2.9375 -2.046875 C 3.207031 -1.773438 3.554688 -1.640625 3.984375 -1.640625 C 4.398438 -1.640625 4.742188 -1.773438 5.015625 -2.046875 C 5.285156 -2.316406 5.421875 -2.660156 5.421875 -3.078125 C 5.421875 -3.503906 5.28125 -3.851562 5 -4.125 C 4.726562 -4.40625 4.390625 -4.546875 3.984375 -4.546875 C 3.578125 -4.546875 3.234375 -4.40625 2.953125 -4.125 Z M 2.953125 -4.125 "/></g></g></g><g fill="#ffffff" fill-opacity="1"><g transform="translate(256.906906, 221.841466)"><g><path d="M 0.71875 0 L 0.71875 -6.1875 L 2.859375 -6.1875 L 2.859375 -5.53125 L 2.875 -5.53125 C 3.425781 -6.082031 4.019531 -6.359375 4.65625 -6.359375 C 4.957031 -6.359375 5.257812 -6.316406 5.5625 -6.234375 C 5.863281 -6.160156 6.148438 -6.035156 6.421875 -5.859375 C 6.703125 -5.691406 6.925781 -5.453125 7.09375 -5.140625 C 7.269531 -4.835938 7.359375 -4.484375 7.359375 -4.078125 L 7.359375 0 L 5.234375 0 L 5.234375 -3.5 C 5.234375 -3.8125 5.128906 -4.085938 4.921875 -4.328125 C 4.710938 -4.578125 4.445312 -4.703125 4.125 -4.703125 C 3.800781 -4.703125 3.507812 -4.578125 3.25 -4.328125 C 2.988281 -4.078125 2.859375 -3.800781 2.859375 -3.5 L 2.859375 0 Z M 0.71875 0 "/></g></g></g><g fill="#ffffff" fill-opacity="1"><g transform="translate(274.501812, 221.841466)"><g><path d="M 1.078125 -6.1875 L 1.078125 -8.484375 L 3.21875 -8.484375 L 3.21875 -6.1875 L 4.515625 -6.1875 L 4.515625 -4.546875 L 3.21875 -4.546875 L 3.21875 -2.59375 C 3.21875 -2.019531 3.378906 -1.734375 3.703125 -1.734375 C 3.773438 -1.734375 3.851562 -1.75 3.9375 -1.78125 C 4.03125 -1.8125 4.101562 -1.84375 4.15625 -1.875 L 4.234375 -1.921875 L 4.765625 -0.203125 C 4.304688 0.0546875 3.78125 0.1875 3.1875 0.1875 C 2.789062 0.1875 2.445312 0.117188 2.15625 -0.015625 C 1.863281 -0.160156 1.644531 -0.351562 1.5 -0.59375 C 1.351562 -0.832031 1.242188 -1.082031 1.171875 -1.34375 C 1.109375 -1.601562 1.078125 -1.882812 1.078125 -2.1875 L 1.078125 -4.546875 L 0.1875 -4.546875 L 0.1875 -6.1875 Z M 1.078125 -6.1875 "/></g></g></g><g fill="#ffffff" fill-opacity="1"><g transform="translate(288.893616, 221.841466)"><g><path d="M 6.96875 -2.796875 L 2.5 -2.796875 C 2.5 -2.359375 2.640625 -2.035156 2.921875 -1.828125 C 3.203125 -1.617188 3.503906 -1.515625 3.828125 -1.515625 C 4.171875 -1.515625 4.441406 -1.5625 4.640625 -1.65625 C 4.847656 -1.75 5.082031 -1.929688 5.34375 -2.203125 L 6.875 -1.4375 C 6.238281 -0.351562 5.171875 0.1875 3.671875 0.1875 C 2.742188 0.1875 1.945312 -0.128906 1.28125 -0.765625 C 0.613281 -1.410156 0.28125 -2.179688 0.28125 -3.078125 C 0.28125 -3.984375 0.613281 -4.753906 1.28125 -5.390625 C 1.945312 -6.035156 2.742188 -6.359375 3.671875 -6.359375 C 4.648438 -6.359375 5.445312 -6.070312 6.0625 -5.5 C 6.675781 -4.9375 6.984375 -4.128906 6.984375 -3.078125 C 6.984375 -2.929688 6.976562 -2.835938 6.96875 -2.796875 Z M 2.546875 -3.96875 L 4.90625 -3.96875 C 4.851562 -4.289062 4.722656 -4.535156 4.515625 -4.703125 C 4.316406 -4.878906 4.054688 -4.96875 3.734375 -4.96875 C 3.378906 -4.96875 3.097656 -4.875 2.890625 -4.6875 C 2.679688 -4.507812 2.566406 -4.269531 2.546875 -3.96875 Z M 2.546875 -3.96875 "/></g></g></g><g clip-path="url(#869def5f8b)"><path fill="#ffffff" d="M 75.40625 179.195312 C 74.875 179.195312 74.367188 179.425781 74.011719 179.824219 L 74.003906 179.835938 C 73.796875 180.074219 73.664062 180.347656 73.597656 180.636719 C 73.238281 180.71875 72.90625 180.910156 72.652344 181.1875 C 72.398438 181.460938 72.242188 181.792969 72.1875 182.136719 C 71.816406 182.199219 71.472656 182.371094 71.199219 182.636719 C 70.9375 182.886719 70.765625 183.203125 70.6875 183.53125 C 70.394531 183.601562 70.125 183.742188 69.898438 183.941406 C 69.152344 184.59375 69.058594 185.746094 69.695312 186.511719 L 78.53125 197.164062 L 78.546875 197.1875 C 79.730469 198.558594 81.351562 199.347656 83.109375 199.410156 C 83.1875 199.414062 83.261719 199.414062 83.335938 199.414062 C 84.253906 199.414062 85.152344 199.210938 85.976562 198.820312 C 86.96875 199.84375 88.046875 200.976562 89.304688 202.316406 C 89.519531 202.546875 89.738281 202.78125 89.957031 203.015625 C 89.414062 203.511719 88.878906 203.996094 88.359375 204.464844 C 86.320312 206.300781 84.273438 208.105469 82.273438 209.828125 C 79.875 211.890625 77.890625 213.53125 76.035156 214.996094 L 76.027344 215.003906 C 75.78125 215.203125 75.550781 215.433594 75.363281 215.667969 C 73.980469 217.425781 74.28125 219.976562 76.035156 221.359375 C 76.746094 221.921875 77.636719 222.230469 78.542969 222.230469 C 79.792969 222.230469 80.953125 221.667969 81.726562 220.6875 C 83.191406 218.828125 84.789062 216.90625 86.898438 214.449219 C 88.628906 212.441406 90.433594 210.390625 92.261719 208.363281 C 92.679688 207.898438 93.109375 207.425781 93.554688 206.933594 C 93.988281 207.410156 94.398438 207.859375 94.785156 208.289062 C 96.621094 210.328125 98.425781 212.375 100.148438 214.375 C 102.257812 216.828125 103.851562 218.753906 105.320312 220.613281 C 105.519531 220.863281 105.753906 221.09375 105.996094 221.285156 C 106.703125 221.847656 107.59375 222.15625 108.5 222.15625 C 109.75 222.15625 110.910156 221.59375 111.683594 220.613281 C 113.066406 218.859375 112.765625 216.308594 111.011719 214.921875 C 109.15625 213.457031 107.171875 211.816406 104.773438 209.75 C 102.765625 208.027344 100.722656 206.222656 98.6875 204.390625 C 98.199219 203.949219 97.699219 203.492188 97.167969 203.011719 C 97.359375 202.800781 97.550781 202.597656 97.742188 202.390625 C 99.101562 200.941406 100.253906 199.730469 101.316406 198.640625 C 102.050781 198.875 102.890625 198.996094 103.792969 198.996094 C 106.976562 198.996094 110.296875 197.578125 112.671875 195.199219 C 114.617188 193.253906 115.921875 190.714844 116.347656 188.050781 C 116.765625 185.433594 116.234375 183.097656 114.929688 181.792969 C 113.949219 180.808594 112.347656 180.269531 110.417969 180.269531 C 107.21875 180.269531 103.894531 181.683594 101.527344 184.050781 C 99.8125 185.765625 98.589844 188.074219 98.085938 190.550781 C 97.730469 192.285156 97.757812 194 98.132812 195.359375 C 97.03125 196.429688 95.828125 197.578125 94.332031 198.976562 C 94.078125 199.21875 93.820312 199.457031 93.5625 199.695312 C 93.277344 199.433594 92.996094 199.167969 92.714844 198.90625 C 91.328125 197.605469 90.203125 196.53125 89.167969 195.535156 C 89.539062 194.683594 89.710938 193.773438 89.671875 192.839844 C 89.601562 191.082031 88.800781 189.464844 87.414062 188.285156 L 87.378906 188.257812 L 76.5625 179.601562 C 76.234375 179.339844 75.824219 179.195312 75.40625 179.195312 Z M 75.40625 180.683594 C 75.484375 180.683594 75.566406 180.707031 75.632812 180.761719 L 86.453125 189.417969 C 87.523438 190.328125 88.132812 191.5625 88.1875 192.898438 C 88.230469 193.945312 87.921875 194.949219 87.320312 195.804688 C 88.761719 197.21875 90.222656 198.609375 91.699219 199.988281 C 92.316406 200.570312 92.941406 201.144531 93.5625 201.71875 C 94.160156 201.167969 94.757812 200.621094 95.351562 200.0625 C 96.867188 198.640625 98.378906 197.207031 99.863281 195.746094 C 98.738281 193.53125 99.226562 188.453125 102.578125 185.101562 C 104.898438 182.777344 107.976562 181.753906 110.417969 181.753906 C 111.914062 181.753906 113.175781 182.140625 113.878906 182.84375 C 115.8125 184.777344 115.367188 190.402344 111.625 194.148438 C 109.296875 196.472656 106.234375 197.511719 103.792969 197.511719 C 102.671875 197.511719 101.683594 197.292969 100.957031 196.882812 C 99.503906 198.359375 98.078125 199.863281 96.660156 201.375 C 96.125 201.945312 95.59375 202.523438 95.0625 203.097656 C 95.9375 203.898438 96.8125 204.699219 97.691406 205.492188 C 99.707031 207.308594 101.746094 209.105469 103.804688 210.878906 C 105.863281 212.648438 107.949219 214.398438 110.089844 216.089844 C 111.203125 216.96875 111.394531 218.582031 110.515625 219.695312 C 110.011719 220.335938 109.257812 220.671875 108.5 220.671875 C 107.945312 220.671875 107.382812 220.492188 106.914062 220.121094 C 106.757812 219.996094 106.605469 219.84375 106.488281 219.695312 C 104.796875 217.550781 103.046875 215.46875 101.277344 213.40625 C 99.503906 211.347656 97.707031 209.308594 95.890625 207.296875 C 95.117188 206.4375 94.335938 205.582031 93.554688 204.726562 C 92.753906 205.605469 91.953125 206.484375 91.15625 207.371094 C 89.339844 209.382812 87.542969 211.421875 85.769531 213.480469 C 84 215.539062 82.25 217.625 80.558594 219.769531 C 80.054688 220.410156 79.300781 220.746094 78.542969 220.746094 C 77.984375 220.746094 77.425781 220.566406 76.957031 220.195312 C 75.839844 219.316406 75.652344 217.703125 76.53125 216.589844 C 76.652344 216.429688 76.804688 216.285156 76.957031 216.164062 C 79.097656 214.472656 81.183594 212.722656 83.242188 210.953125 C 85.300781 209.179688 87.339844 207.382812 89.355469 205.566406 C 90.257812 204.75 91.164062 203.929688 92.0625 203.105469 C 91.503906 202.503906 90.949219 201.898438 90.386719 201.300781 C 89.011719 199.832031 87.628906 198.375 86.21875 196.941406 C 85.378906 197.578125 84.378906 197.929688 83.335938 197.929688 C 83.277344 197.929688 83.222656 197.925781 83.164062 197.925781 C 81.820312 197.875 80.582031 197.269531 79.671875 196.214844 L 70.839844 185.5625 C 70.714844 185.414062 70.726562 185.1875 70.878906 185.058594 C 70.949219 184.996094 71.035156 184.964844 71.121094 184.964844 C 71.21875 184.964844 71.3125 185.003906 71.382812 185.078125 L 80.476562 194.476562 C 80.550781 194.558594 80.636719 194.601562 80.722656 194.605469 L 80.730469 194.605469 C 80.777344 194.605469 80.839844 194.589844 80.894531 194.535156 C 81.007812 194.421875 80.996094 194.203125 80.863281 194.0625 L 72.214844 184.203125 C 72.085938 184.058594 72.089844 183.839844 72.234375 183.703125 C 72.304688 183.632812 72.394531 183.597656 72.488281 183.597656 C 72.578125 183.597656 72.664062 183.628906 72.734375 183.695312 L 82.382812 192.539062 C 82.46875 192.625 82.558594 192.664062 82.652344 192.664062 C 82.703125 192.664062 82.777344 192.652344 82.839844 192.589844 C 82.898438 192.53125 82.910156 192.457031 82.910156 192.40625 C 82.910156 192.316406 82.867188 192.222656 82.796875 192.15625 L 73.746094 182.691406 C 73.613281 182.550781 73.613281 182.332031 73.746094 182.191406 C 73.816406 182.113281 73.910156 182.074219 74.007812 182.074219 C 74.09375 182.074219 74.179688 182.101562 74.246094 182.160156 L 84.292969 190.605469 C 84.378906 190.6875 84.484375 190.726562 84.578125 190.726562 C 84.660156 190.726562 84.730469 190.699219 84.785156 190.648438 C 84.84375 190.589844 84.851562 190.523438 84.851562 190.476562 C 84.847656 190.394531 84.804688 190.308594 84.730469 190.246094 L 75.15625 181.3125 C 75.011719 181.179688 75 180.957031 75.128906 180.808594 C 75.203125 180.726562 75.304688 180.683594 75.40625 180.683594 " fill-opacity="1" fill-rule="nonzero"/></g></svg>